<?xml version="1.0" encoding="UTF-8"?>
<svg id="Layer_1" xmlns="http://www.w3.org/2000/svg" viewBox="0 0 422.3275 57.5625">
  <defs>
    <style>
      .cls-1 {
        font-size: 10px;
      }

      .cls-1, .cls-2, .cls-3, .cls-4 {
        fill: #53575b;
      }

      .cls-1, .cls-4 {
        font-family: SourceSansPro-SemiBold, 'Source Sans Pro';
        font-weight: 600;
        letter-spacing: .02em;
      }

      .cls-5 {
        fill: #2e2d29;
      }

      .cls-6 {
        fill: none;
        stroke: #989795;
        stroke-miterlimit: 10;
      }

      .cls-3 {
        font-size: 36px;
        letter-spacing: .022em;
      }

      .cls-7 {
        fill: #8c1816;
      }

      .cls-8 {
        fill: #8c1817;
        font-size: 48px;
        letter-spacing: .015em;
      }

      .cls-4 {
        font-size: 11px;
      }

      .cls-9 {
        font-family: SourceSansRoman-Regular, 'Source Sans Variable';
        font-variation-settings: 'wght' 400;
      }
    </style>
  </defs>
  <g>
    <text class="cls-9" transform="translate(.6473 43.7393)"><tspan class="cls-8" x="0" y="0">F</tspan><tspan class="cls-3" x="24.4316" y="0">x</tspan></text>
    <text class="cls-4" transform="translate(23.8221 19.6824)"><tspan x="0" y="0">Lab</tspan></text>
    <text class="cls-1" transform="translate(4.6458 11.3893)"><tspan x="0" y="0">530</tspan></text>
  </g>
  <rect class="cls-6" x=".861" y="1.8819" width="44.395" height="44.395"/>
  <g>
    <path class="cls-2" d="M56.1678,2.7744h1.3369v9.374h4.585v1.1318h-5.9219V2.7744Z"/>
    <path class="cls-2" d="M63.3387,11.2607c0-1.6953,1.4629-2.543,4.7788-2.9033-.0034-1.001-.335-1.9658-1.606-1.9658-.8999,0-1.7104.4268-2.3203.834l-.5151-.9023c.7158-.4697,1.8076-1.0156,3.0562-1.0156,1.8984,0,2.7021,1.2617,2.7021,3.1992v4.7734h-1.0879l-.1113-.9297h-.0435c-.7417.6162-1.6079,1.1221-2.5732,1.1221-1.3022,0-2.2798-.8086-2.2798-2.2119ZM68.1175,11.3818v-2.1611c-2.6074.3135-3.4888.9521-3.4888,1.9473,0,.8838.6001,1.2432,1.3633,1.2432.752,0,1.3721-.3652,2.1255-1.0293Z"/>
    <path class="cls-2" d="M73.1038,12.4766h-.0439l-.1226.8037h-1.0522V1.877h1.3164v3.1191l-.0439,1.3945c.7119-.6133,1.5781-1.083,2.4443-1.083,2.0103,0,3.0908,1.5605,3.0908,3.959,0,2.6572-1.5918,4.2061-3.3696,4.2061-.7246,0-1.5298-.373-2.2192-.9961ZM77.3323,9.2842c0-1.7178-.5864-2.8691-2.0508-2.8691-.6592,0-1.3438.3623-2.0801,1.0625v4.0781c.6846.5918,1.3804.8086,1.8945.8086,1.2876,0,2.2363-1.1592,2.2363-3.0801Z"/>
    <path class="cls-2" d="M80.1551,9.4004c0-2.5967,1.6982-4.0928,3.6055-4.0928s3.6055,1.4961,3.6055,4.0928c0,2.5762-1.6982,4.0723-3.6055,4.0723s-3.6055-1.4961-3.6055-4.0723ZM86.0052,9.4004c0-1.7832-.9067-2.9971-2.2446-2.9971s-2.2451,1.2139-2.2451,2.9971c0,1.7822.9067,2.9756,2.2451,2.9756s2.2446-1.1934,2.2446-2.9756Z"/>
    <path class="cls-2" d="M89.4051,5.5h1.0874l.1113,1.417h.0435c.542-.9873,1.3369-1.6094,2.2124-1.6094.3447,0,.5864.0439.8306.1602l-.2456,1.1553c-.2681-.085-.4434-.1289-.7549-.1289-.6572,0-1.4424.4736-1.9683,1.79v4.9961h-1.3164v-7.7803Z"/>
    <path class="cls-2" d="M94.0906,11.2607c0-1.6953,1.4629-2.543,4.7788-2.9033-.0034-1.001-.335-1.9658-1.606-1.9658-.8999,0-1.7104.4268-2.3203.834l-.5151-.9023c.7158-.4697,1.8076-1.0156,3.0562-1.0156,1.8984,0,2.7021,1.2617,2.7021,3.1992v4.7734h-1.0879l-.1113-.9297h-.0435c-.7417.6162-1.6079,1.1221-2.5732,1.1221-1.3022,0-2.2798-.8086-2.2798-2.2119ZM98.8694,11.3818v-2.1611c-2.6074.3135-3.4888.9521-3.4888,1.9473,0,.8838.6001,1.2432,1.3633,1.2432.752,0,1.3721-.3652,2.1255-1.0293Z"/>
    <path class="cls-2" d="M102.6434,10.875v-4.3027h-1.1577v-.9971l1.2168-.0752.1582-2.1826h1.0996v2.1826h2.1079v1.0723h-2.1079v4.3252c0,.9512.3062,1.502,1.2031,1.502.2764,0,.6333-.1045.8862-.209l.2544.9941c-.4365.1484-.958.2881-1.4438.2881-1.6558,0-2.2168-1.0498-2.2168-2.5977Z"/>
    <path class="cls-2" d="M107.0189,9.4004c0-2.5967,1.6982-4.0928,3.6055-4.0928s3.6055,1.4961,3.6055,4.0928c0,2.5762-1.6982,4.0723-3.6055,4.0723s-3.6055-1.4961-3.6055-4.0723ZM112.869,9.4004c0-1.7832-.9067-2.9971-2.2446-2.9971s-2.2451,1.2139-2.2451,2.9971c0,1.7822.9067,2.9756,2.2451,2.9756s2.2446-1.1934,2.2446-2.9756Z"/>
    <path class="cls-2" d="M116.2689,5.5h1.0874l.1113,1.417h.0435c.542-.9873,1.3369-1.6094,2.2124-1.6094.3447,0,.5864.0439.8306.1602l-.2461,1.1553c-.2676-.085-.4429-.1289-.7544-.1289-.6572,0-1.4424.4736-1.9683,1.79v4.9961h-1.3164v-7.7803Z"/>
    <path class="cls-2" d="M121.4398,16.4736l.2578-1.0488c.1538.0518.3926.1162.5928.1162.8779,0,1.4326-.7051,1.7544-1.6709l.1772-.5742-3.1226-7.7959h1.3574l1.5874,4.3066c.2441.6758.5054,1.4727.7583,2.1924h.064c.2207-.708.4414-1.5049.6538-2.1924l1.3872-4.3066h1.2896l-2.9316,8.4209c-.5493,1.5439-1.353,2.7129-2.9126,2.7129-.3623,0-.6621-.0645-.9131-.1602Z"/>
    <path class="cls-5" d="M132.3143,9.4004c0-2.5967,1.6982-4.0928,3.6055-4.0928s3.6055,1.4961,3.6055,4.0928c0,2.5762-1.6982,4.0723-3.6055,4.0723s-3.6055-1.4961-3.6055-4.0723ZM138.1644,9.4004c0-1.7832-.9067-2.9971-2.2446-2.9971s-2.2451,1.2139-2.2451,2.9971c0,1.7822.9067,2.9756,2.2451,2.9756s2.2446-1.1934,2.2446-2.9756Z"/>
    <path class="cls-5" d="M140.6927,5.5752l1.1152-.0752h2.9058v1.0723h-4.021v-.9971ZM141.7488,4.2705c0-1.5811.7197-2.5859,2.2793-2.5859.4731,0,.9399.1201,1.292.2676l-.2778,1.0059c-.2964-.1367-.605-.2012-.8813-.2012-.7349,0-1.0952.5137-1.0952,1.5186v9.0049h-1.3169V4.2705Z"/>
    <path class="cls-7" d="M149.5267,2.7744h6.0586v1.1318h-4.7217v3.543h4.0039v1.1309h-4.0039v4.7002h-1.3369V2.7744Z"/>
    <path class="cls-5" d="M157.3084,11.7178V1.877h1.3164v9.9365c0,.4023.1753.5625.3672.5625.0757,0,.1401,0,.2881-.0322l.1787,1.0059c-.187.0674-.4126.123-.7578.123-.9868,0-1.3926-.6299-1.3926-1.7549Z"/>
    <path class="cls-5" d="M161.283,10.4297v-4.9297h1.3164v4.7598c0,1.4492.438,2.0693,1.4678,2.0693.7959,0,1.3467-.3945,2.0835-1.3115v-5.5176h1.3164v7.7803h-1.0874l-.1113-1.2188h-.0439c-.7212.8496-1.4976,1.4111-2.5659,1.4111-1.6392,0-2.3755-1.0586-2.3755-3.043Z"/>
    <path class="cls-5" d="M169.8504,3.0498c0-.5176.3975-.8506.9097-.8506.5117,0,.9092.333.9092.8506,0,.4971-.3975.8506-.9092.8506-.5122,0-.9097-.3535-.9097-.8506ZM170.0916,5.5h1.3164v7.7803h-1.3164v-7.7803Z"/>
    <path class="cls-5" d="M173.4725,9.4004c0-2.5244,1.5923-4.0928,3.3667-4.0928.9048,0,1.4976.3398,2.1802.9014l-.0557-1.335V1.877h1.3169v11.4033h-1.0879l-.1108-.918h-.0439c-.605.6045-1.4341,1.1104-2.3608,1.1104-1.9443,0-3.2046-1.4795-3.2046-4.0723ZM178.9637,11.3027v-4.0781c-.6641-.5918-1.2622-.8096-1.8975-.8096-1.2441,0-2.2334,1.2002-2.2334,2.9736,0,1.8652.772,2.9756,2.1353,2.9756.7197,0,1.3433-.3506,1.9956-1.0615Z"/>
    <path class="cls-5" d="M182.0443,12.3926l.6499-.8672c.6753.5439,1.3623.9219,2.2964.9219,1.0215,0,1.5288-.5449,1.5288-1.209,0-.8008-.9185-1.1543-1.7793-1.4746-1.0903-.3984-2.3203-.9346-2.3203-2.2471,0-1.2451.9971-2.209,2.6836-2.209.9688,0,1.8159.3965,2.4194.874l-.6299.8438c-.5356-.3955-1.0859-.6924-1.7744-.6924-.98,0-1.4326.5225-1.4326,1.1162,0,.7393.8462,1.0205,1.7271,1.3496,1.1226.4229,2.3726.8789,2.3726,2.3604,0,1.2617-1.0024,2.3135-2.8384,2.3135-1.1055,0-2.1719-.4688-2.9028-1.0801Z"/>
    <path class="cls-5" d="M55.804,22.25c0-.5176.3975-.8506.9097-.8506.5117,0,.9092.333.9092.8506,0,.4971-.3975.8506-.9092.8506-.5122,0-.9097-.3535-.9097-.8506ZM56.0452,24.7002h1.3164v7.7803h-1.3164v-7.7803Z"/>
    <path class="cls-5" d="M59.9813,24.7002h1.0874l.1113,1.1221h.0435c.7417-.7295,1.542-1.3145,2.6104-1.3145,1.6392,0,2.3755,1.0576,2.3755,3.043v4.9297h-1.3169v-4.7598c0-1.4492-.438-2.0693-1.4678-2.0693-.7954,0-1.3467.4062-2.127,1.1943v5.6348h-1.3164v-7.7803Z"/>
    <path class="cls-5" d="M71.4461,27.2373c0-3.3887,1.9961-5.4541,4.6616-5.4541,1.2754,0,2.2749.6201,2.8896,1.2959l-.7324.8701c-.5527-.5898-1.2471-.9912-2.1333-.9912-1.9854,0-3.3047,1.627-3.3047,4.2441,0,2.6406,1.2603,4.2949,3.2524,4.2949,1.0024,0,1.7642-.4365,2.4351-1.1797l.7324.8389c-.8301.9639-1.8584,1.5166-3.2231,1.5166-2.6167,0-4.5776-2.0244-4.5776-5.4355Z"/>
    <path class="cls-5" d="M80.491,28.6006c0-2.5967,1.6982-4.0928,3.6055-4.0928s3.6055,1.4961,3.6055,4.0928c0,2.5762-1.6982,4.0723-3.6055,4.0723s-3.6055-1.4961-3.6055-4.0723ZM86.3411,28.6006c0-1.7832-.9067-2.9971-2.2446-2.9971s-2.2451,1.2139-2.2451,2.9971c0,1.7822.9067,2.9756,2.2451,2.9756s2.2446-1.1934,2.2446-2.9756Z"/>
    <path class="cls-5" d="M89.741,24.7002h1.0874l.1113,1.1279h.0435c.6812-.7354,1.4946-1.3203,2.4214-1.3203,1.1895,0,1.8271.5693,2.1484,1.4824.8076-.874,1.6191-1.4824,2.5659-1.4824,1.5991,0,2.3672,1.0576,2.3672,3.043v4.9297h-1.3164v-4.7598c0-1.4492-.4585-2.0693-1.4478-2.0693-.6035,0-1.2305.3936-1.9502,1.1943v5.6348h-1.3164v-4.7598c0-1.4492-.4585-2.0693-1.4478-2.0693-.5835,0-1.2305.3936-1.9502,1.1943v5.6348h-1.3164v-7.7803Z"/>
    <path class="cls-5" d="M103.0047,24.7002h1.0874l.1113.8975h.0435c.7036-.584,1.5791-1.0898,2.4805-1.0898,2.0103,0,3.085,1.5605,3.085,3.9648,0,2.6514-1.5918,4.2002-3.3696,4.2002-.7129,0-1.4424-.3291-2.1567-.9014l.0352,1.3574v2.6338h-1.3164v-11.0625ZM108.452,28.4844c0-1.7178-.5864-2.8691-2.0513-2.8691-.6587,0-1.3228.3623-2.0796,1.0625v4.0781c.7046.5918,1.3804.8086,1.8945.8086,1.2876,0,2.2363-1.1592,2.2363-3.0801Z"/>
    <path class="cls-5" d="M111.8206,30.918v-9.8408h1.3164v9.9365c0,.4023.1753.5625.3672.5625.0757,0,.1401,0,.2881-.0322l.1787,1.0059c-.187.0674-.4126.123-.7578.123-.9868,0-1.3926-.6299-1.3926-1.7549Z"/>
    <path class="cls-5" d="M115.3226,28.6006c0-2.5322,1.7065-4.0928,3.4976-4.0928,1.9844,0,3.105,1.4248,3.105,3.6514,0,.2773-.0234.5557-.0615.7471h-5.2397c.0942,1.6484,1.1021,2.7178,2.5854,2.7178.7466,0,1.3599-.2412,1.936-.6221l.4712.8633c-.6821.4463-1.5107.8076-2.5688.8076-2.0742,0-3.7251-1.5166-3.7251-4.0723ZM120.7615,27.9639c0-1.5596-.7012-2.4072-1.918-2.4072-1.0938,0-2.0713.8779-2.2314,2.4072h4.1494Z"/>
    <path class="cls-2" d="M125.178,28.4199l-2.3535-3.7197h1.4277l1.0415,1.707c.2383.4277.5029.8672.7617,1.2949h.064c.2349-.4277.4673-.8672.7026-1.2949l.9507-1.707h1.3721l-2.354,3.8574,2.543,3.9229h-1.4277l-1.1465-1.8086c-.27-.4678-.5552-.9482-.8457-1.3965h-.064c-.2671.4482-.52.9229-.7871,1.3965l-1.0552,1.8086h-1.3721l2.5425-4.0605Z"/>
    <path class="cls-5" d="M134.2947,21.9756h6.0552v1.1309h-4.7183v3.292h3.98v1.1309h-3.98v3.8193h4.8784v1.1318h-6.2153v-10.5049Z"/>
    <path class="cls-5" d="M142.6038,24.7002h1.0874l.1113,1.1221h.0435c.7417-.7295,1.542-1.3145,2.6104-1.3145,1.6392,0,2.3755,1.0576,2.3755,3.043v4.9297h-1.3169v-4.7598c0-1.4492-.438-2.0693-1.4678-2.0693-.7954,0-1.3467.4062-2.127,1.1943v5.6348h-1.3164v-7.7803Z"/>
    <path class="cls-5" d="M150.2347,24.7002h1.3574l1.4712,4.4199c.2324.7598.4854,1.5518.7178,2.2949h.064c.2324-.7432.4854-1.5352.7178-2.2949l1.4717-4.4199h1.2896l-2.7515,7.7803h-1.5308l-2.8071-7.7803Z"/>
    <path class="cls-5" d="M158.5862,22.25c0-.5176.3975-.8506.9097-.8506.5117,0,.9092.333.9092.8506,0,.4971-.3975.8506-.9092.8506-.5122,0-.9097-.3535-.9097-.8506ZM158.8275,24.7002h1.3164v7.7803h-1.3164v-7.7803Z"/>
    <path class="cls-5" d="M162.763,24.7002h1.0874l.1113,1.417h.0435c.542-.9873,1.3369-1.6094,2.2124-1.6094.3447,0,.5864.0439.8306.1602l-.2461,1.1553c-.2676-.085-.4429-.1289-.7544-.1289-.6572,0-1.4424.4736-1.9683,1.79v4.9961h-1.3164v-7.7803Z"/>
    <path class="cls-5" d="M167.577,28.6006c0-2.5967,1.6982-4.0928,3.6055-4.0928s3.6055,1.4961,3.6055,4.0928c0,2.5762-1.6982,4.0723-3.6055,4.0723s-3.6055-1.4961-3.6055-4.0723ZM173.4271,28.6006c0-1.7832-.9067-2.9971-2.2446-2.9971s-2.2451,1.2139-2.2451,2.9971c0,1.7822.9067,2.9756,2.2451,2.9756s2.2446-1.1934,2.2446-2.9756Z"/>
    <path class="cls-5" d="M176.827,24.7002h1.0874l.1113,1.1221h.0435c.7417-.7295,1.542-1.3145,2.6104-1.3145,1.6392,0,2.3755,1.0576,2.3755,3.043v4.9297h-1.3169v-4.7598c0-1.4492-.438-2.0693-1.4678-2.0693-.7954,0-1.3467.4062-2.127,1.1943v5.6348h-1.3164v-7.7803Z"/>
    <path class="cls-5" d="M185.5789,24.7002h1.0874l.1113,1.1279h.0435c.6812-.7354,1.4946-1.3203,2.4214-1.3203,1.1895,0,1.8271.5693,2.1484,1.4824.8076-.874,1.6191-1.4824,2.5659-1.4824,1.5991,0,2.3672,1.0576,2.3672,3.043v4.9297h-1.3164v-4.7598c0-1.4492-.4585-2.0693-1.4478-2.0693-.6035,0-1.2305.3936-1.9502,1.1943v5.6348h-1.3164v-4.7598c0-1.4492-.4585-2.0693-1.4478-2.0693-.5835,0-1.2305.3936-1.9502,1.1943v5.6348h-1.3164v-7.7803Z"/>
    <path class="cls-5" d="M198.2645,28.6006c0-2.5322,1.7065-4.0928,3.4976-4.0928,1.9844,0,3.105,1.4248,3.105,3.6514,0,.2773-.0234.5557-.0615.7471h-5.2397c.0942,1.6484,1.1021,2.7178,2.5854,2.7178.7466,0,1.3599-.2412,1.936-.6221l.4712.8633c-.6821.4463-1.5107.8076-2.5688.8076-2.0742,0-3.7251-1.5166-3.7251-4.0723ZM203.7034,27.9639c0-1.5596-.7012-2.4072-1.918-2.4072-1.0938,0-2.0713.8779-2.2314,2.4072h4.1494Z"/>
    <path class="cls-5" d="M206.7781,24.7002h1.0874l.1113,1.1221h.0435c.7417-.7295,1.5415-1.3145,2.6099-1.3145,1.6396,0,2.376,1.0576,2.376,3.043v4.9297h-1.3164v-4.7598c0-1.4492-.4385-2.0693-1.4688-2.0693-.7949,0-1.3457.4062-2.1265,1.1943v5.6348h-1.3164v-7.7803Z"/>
    <path class="cls-5" d="M215.761,30.0752v-4.3027h-1.1582v-.9971l1.2168-.0752.1582-2.1826h1.0996v2.1826h2.1074v1.0723h-2.1074v4.3252c0,.9512.3066,1.502,1.2031,1.502.2764,0,.6338-.1045.8857-.209l.2549.9941c-.4365.1475-.958.2881-1.4434.2881-1.6562,0-2.2168-1.0498-2.2168-2.5977Z"/>
    <path class="cls-5" d="M219.9153,31.5928l.6494-.8672c.6758.5439,1.3623.9219,2.2969.9219,1.0215,0,1.5293-.5449,1.5293-1.209,0-.8008-.9189-1.1543-1.7803-1.4746-1.0898-.3984-2.3193-.9346-2.3193-2.2471,0-1.2451.9971-2.209,2.6836-2.209.9678,0,1.8154.3965,2.4189.874l-.6299.8438c-.5361-.3955-1.0859-.6924-1.7744-.6924-.9805,0-1.4326.5225-1.4326,1.1162,0,.7393.8457,1.0205,1.7275,1.3496,1.1221.4229,2.3721.8789,2.3721,2.3604,0,1.2617-1.002,2.3135-2.8389,2.3135-1.1045,0-2.1709-.4688-2.9023-1.0801Z"/>
  </g>
</svg>